Coordinates
version=1
nRows=15
nColumns=42
inDegrees=yes

Units are S.I. units (second, meters, Newtons, ...)
If the header above contains a line with 'inDegrees', this indicates whether rotational values are in degrees (yes) or radians (no).

endheader
time	pelvis_tilt	pelvis_list	pelvis_rotation	pelvis_tx	pelvis_ty	pelvis_tz	hip_flexion_r	hip_adduction_r	hip_rotation_r	knee_angle_r	knee_angle_r_beta	ankle_angle_r	subtalar_angle_r	mtp_angle_r	hip_flexion_l	hip_adduction_l	hip_rotation_l	knee_angle_l	knee_angle_l_beta	ankle_angle_l	subtalar_angle_l	mtp_angle_l	lumbar_extension	lumbar_bending	lumbar_rotation	sh_tx_r	sh_ty_r	sh_tz_r	sh_plane_elev_r	sh_elev_r	sh_axial_rot_r	elbow_flex_r	pro_sup_r	sh_tx_l	sh_ty_l	sh_tz_l	sh_plane_elev_l	sh_elev_l	sh_axial_rot_l	elbow_flex_l	pro_sup_l
      6.50847460	     -3.18493469	      0.98951127	      1.77745530	      0.24656335	      0.94955741	     -0.07751789	      2.25057281	     -4.96561046	     -2.09030863	      3.54474945	      0.06186755	      0.02225657	     -9.62115934	     -7.49999987	      1.14006886	      0.17599024	     -7.55303335	      1.43059865	      0.02496866	      5.50602821	      5.06909869	     -7.49999987	      2.25910816	     -0.69531505	     -1.18986998	      0.03833056	      0.02432225	     -0.00682626	    -23.98697384	     27.31309806	    -31.64135072	     53.62049842	     61.03559976	      0.03248766	      0.02973597	     -0.00768361	     10.73908984	     37.25665375	    -43.22736347	     41.44943796	     47.59740026
      6.52542370	     -3.20596459	      1.00524291	      1.77146881	      0.24795147	      0.95059668	     -0.07873411	      2.35429165	     -5.06307237	     -2.22119008	      3.62620314	      0.06328918	      0.00528790	     -9.65849152	     -7.49999987	      1.19028864	      0.23767560	     -7.65805375	      1.44901316	      0.02529005	      5.56056644	      5.02518097	     -7.49999987	      2.17741249	     -0.78234334	     -1.90041399	      0.03873422	      0.02237599	     -0.00666775	    -25.24319841	     25.61277616	    -29.38783081	     53.59424082	     61.21740261	      0.03287096	      0.02810397	     -0.00751922	      8.93530495	     35.26499115	    -42.08255202	     42.32636576	     47.87776108
      6.54237290	     -3.20507794	      1.00062886	      1.73630403	      0.24843503	      0.94714346	     -0.07766551	      2.41565976	     -5.09917831	     -2.10930873	      3.67055355	      0.06406324	      0.03509866	     -9.83566285	     -7.49999987	      1.19329940	      0.26641382	     -7.68196658	      1.44860308	      0.02528289	      5.64325816	      4.87277097	     -7.49999987	      2.04876333	     -0.85770087	     -2.46556312	      0.03865207	      0.02130879	     -0.00656414	    -26.83050996	     23.85166322	    -26.92779880	     53.39111998	     61.47344456	      0.03266828	      0.02678691	     -0.00736891	      7.65024674	     33.50760332	    -41.42827336	     42.93346146	     47.35326776
      6.55932200	     -3.23624971	      1.01523594	      1.74230132	      0.24621617	      0.95007281	     -0.07954414	      2.53051294	     -5.16814695	     -2.18529854	      3.75701973	      0.06557236	      0.13081860	     -9.83845195	     -7.49999987	      1.26180577	      0.32290175	     -7.64955389	      1.43327398	      0.02501535	      5.71572037	      4.81035269	     -7.49999987	      2.05013877	     -0.93593468	     -3.03315855	      0.03874593	      0.01979278	     -0.00641022	    -29.14332861	     22.06397979	    -23.74366763	     53.15057309	     62.07069461	      0.03334254	      0.02478072	     -0.00719745	      6.30928530	     31.75090524	    -40.09585529	     43.20103671	     47.65009870
      6.57627120	     -3.23899549	      1.02285324	      1.74412527	      0.24551974	      0.94695184	     -0.08129833	      2.60693712	     -5.23912428	     -2.07768838	      3.84484034	      0.06710512	      0.10115458	    -10.02182086	     -7.49999987	      1.30791230	      0.40513387	     -7.63688046	      1.44096397	      0.02514957	      5.81873862	      4.61476588	     -7.49999987	      1.95535050	     -0.98579123	     -3.61786711	      0.03852994	      0.01841992	     -0.00629575	    -31.10308549	     20.39755144	    -20.84976480	     52.79823572	     62.64779397	      0.03349651	      0.02305987	     -0.00703676	      4.92418068	     29.90847235	    -39.01812935	     43.52405735	     48.06528107
      6.59322030	     -3.08234396	      1.03717729	      1.71525519	      0.24620465	      0.94737096	     -0.07961984	      2.48477337	     -5.27216108	     -1.95473795	      3.86106501	      0.06738830	      0.22527724	     -9.88855909	     -7.49999987	      1.12962847	      0.45671322	     -7.62100772	      1.39527835	      0.02435220	      5.83706321	      4.45287201	     -7.49999987	      1.51777033	     -1.06624129	     -4.18246371	      0.03671025	      0.01771921	     -0.00640330	    -31.90479044	     18.81419776	    -18.75342450	     51.66174378	     62.93771065	      0.03145683	      0.02179740	     -0.00694942	      4.51250859	     28.41411698	    -38.44226408	     43.10239338	     48.08748370
      6.61016950	     -3.17042113	      1.01783642	      1.63354682	      0.24533229	      0.94401589	     -0.08077420	      2.64901329	     -5.27750297	     -1.80689890	      3.95304023	      0.06899357	      0.11745651	    -10.37080987	     -7.49999987	      1.23672773	      0.49505919	     -7.49115443	      1.37448936	      0.02398936	      5.96179138	      4.21869959	     -7.49999987	      1.64742856	     -1.09889653	     -4.69378688	      0.03725837	      0.01658820	     -0.00627872	    -34.14603540	     17.38774264	    -15.52140965	     51.14996705	     63.39319210	      0.03212706	      0.02046914	     -0.00671717	      2.53364456	     26.56169670	    -36.92315110	     43.50538308	     48.50451609
      6.62711860	     -3.22482540	      1.01606386	      1.51752254	      0.24561739	      0.94658718	     -0.08109223	      2.81244334	     -5.30062623	     -1.94639510	      4.14497669	      0.07234349	      0.37702436	     -9.98008721	     -7.49999987	      1.29580482	      0.50742946	     -7.85649016	      1.40214800	      0.02447210	      6.29903649	      4.99479633	     -7.49999987	      1.56685406	     -1.10916298	     -5.17408506	      0.03490851	      0.01616499	     -0.00643543	    -34.40197537	     15.96882695	    -14.38917826	     49.15197274	     63.34654027	      0.02918275	      0.01922093	     -0.00670581	      2.54288308	     25.20771415	    -36.38403497	     42.26411508	     48.35744689
      6.64406780	     -3.17915864	      1.00682079	      1.38191864	      0.24673653	      0.94570400	     -0.08145315	      2.83334035	     -5.32775441	     -1.95717975	      4.26302434	      0.07440381	      0.46129603	    -10.10873369	     -7.49999987	      1.14375272	      0.54028752	     -7.56510861	      1.31093127	      0.02288007	      6.16348767	      4.20105015	     -7.49999987	      1.64890068	     -1.18858425	     -5.40885050	      0.03664169	      0.01451061	     -0.00612621	    -39.05444590	     14.63640865	     -9.11012082	     48.85517307	     65.84261863	      0.03363864	      0.01808131	     -0.00619861	     -3.07080342	     22.52305199	    -31.84749216	     44.53811425	     50.10069622
      6.66101690	     -3.17936494	      1.00532610	      1.30153004	      0.24714485	      0.94722806	     -0.08150601	      2.84269771	     -5.34014210	     -1.84219847	      4.28802768	      0.07484020	      0.58504015	     -9.92107413	     -7.49999987	      1.12837131	      0.54882667	     -7.80586944	      1.32810760	      0.02317985	      6.37897168	      4.70507193	     -7.49999987	      1.50890303	     -1.23639474	     -5.85143154	      0.03346644	      0.01411593	     -0.00646049	    -39.21296994	     13.26505148	     -7.68107364	     46.40453733	     66.08320725	      0.03024114	      0.01732351	     -0.00614338	     -2.92679303	     21.06751180	    -31.17890028	     43.08466009	     49.81345013
      6.67796610	     -3.10543135	      0.99701762	      1.18830890	      0.24501801	      0.94488730	     -0.08209432	      2.83491421	     -5.36132912	     -1.74090588	      4.38771632	      0.07658010	      0.87779968	     -9.69057368	     -7.49999987	      0.97740468	      0.58805503	     -7.34934682	      1.23477022	      0.02155081	      6.13336267	      3.63194729	     -7.49999987	      1.45750602	     -1.36895387	     -6.40198119	      0.03414182	      0.01311192	     -0.00632533	    -42.16812346	     11.93723505	     -3.42501164	     44.91456757	     69.32642184	      0.03251615	      0.01639438	     -0.00566534	     -8.50545303	     18.75739092	    -26.54468140	     44.35700330	     52.26527045
      6.69491530	     -3.05656821	      1.01343979	      0.99545823	      0.24527961	      0.94559129	     -0.08245410	      2.82233816	     -5.39899620	     -1.48734432	      4.36917021	      0.07625641	      1.00867573	     -9.66473794	     -7.49999987	      0.89757111	      0.63689342	     -7.68580079	      1.18248654	      0.02063828	      6.35839954	      4.36277470	     -7.49999987	      1.11340353	     -1.45305347	     -6.58785515	      0.03071961	      0.01226027	     -0.00645930	    -42.17958933	     10.53880664	     -2.31327985	     42.66990196	     69.55199906	      0.02932865	      0.01624074	     -0.00562831	     -8.16996432	     17.30458911	    -26.03830888	     42.99308913	     52.18888223
      6.71186440	     -3.01252462	      0.92991310	      0.68146599	      0.24681212	      0.94438789	     -0.07922641	      2.88318720	     -5.28064299	     -1.26194841	      4.47245170	      0.07805901	      1.12074015	     -9.55377986	     -7.49999987	      0.76299347	      0.58286096	     -7.52052181	      1.07110933	      0.01869438	      6.24356119	      3.82285411	     -7.49999987	      1.21287825	     -1.58809969	     -7.02977914	      0.03124128	      0.01110019	     -0.00648657	    -42.15309333	      9.44896322	     -0.51564455	     39.56297022	     74.25272792	      0.03126618	      0.01529242	     -0.00518904	    -14.88458498	     15.24655460	    -20.73214833	     43.51052779	     56.68540577
      6.72881360	     -2.94407549	      0.86448080	      0.37535248	      0.24798858	      0.94187213	     -0.07607013	      2.86741072	     -5.11960788	     -1.13589416	      4.53806850	      0.07920424	      1.37190455	     -9.52508916	     -7.49999987	      0.59366565	      0.48440725	     -7.56110679	      0.98498462	      0.01719122	      6.40460304	      3.90721164	     -7.49999987	      0.97960370	     -1.74086846	     -6.93007490	      0.02840039	      0.00974826	     -0.00660898	    -40.65282487	      8.44099300	      0.45813860	     36.59383731	     74.40985261	      0.02933692	      0.01506027	     -0.00524046	    -14.19805638	     14.24659108	    -19.79673502	     41.75251961	     56.64796197
      6.74576270	     -2.88533235	      0.78588379	      0.08175242	      0.24893909	      0.93759493	     -0.07607404	      2.85632396	     -4.95713783	     -1.07264027	      4.66844012	      0.08147965	      1.69196778	     -9.40022074	     -7.49999987	      0.43089682	      0.37187687	     -7.56674719	      0.93065218	      0.01624294	      6.73808633	      4.08586225	     -7.49999987	      0.79707921	     -1.88876986	     -7.04257226	      0.02624477	      0.00826217	     -0.00670156	    -38.74904937	      7.50726614	      1.20984514	     33.77875324	     74.43031084	      0.02682363	      0.01455764	     -0.00535457	    -13.25644283	     13.37632845	    -19.07333287	     39.93611638	     56.60207135
